<?xml version="1.0" encoding="utf-8"?>
<!-- Generator: Adobe Illustrator 16.0.0, SVG Export Plug-In . SVG Version: 6.00 Build 0)  -->
<!DOCTYPE svg PUBLIC "-//W3C//DTD SVG 1.1//EN" "http://www.w3.org/Graphics/SVG/1.1/DTD/svg11.dtd">
<svg version="1.1" id="Layer_1" xmlns="http://www.w3.org/2000/svg" xmlns:xlink="http://www.w3.org/1999/xlink" x="0px" y="0px"
	 width="2455.083px" height="774.288px" viewBox="0 0 2455.083 774.288" enable-background="new 0 0 2455.083 774.288"
	 xml:space="preserve">
<g id="Layer_1_1_" display="none">
	<g display="inline">
		<g>
			<path fill="#FFFFFF" d="M2466.833,79c0-16.845-13.654-30.5-30.5-30.5c-5.611,0-10.865,1.522-15.383,4.167
				c-6.121-8.002-15.764-13.167-26.617-13.167c-8.322,0-15.932,3.042-21.791,8.066c-0.992-0.98-2.068-1.874-3.217-2.674
				c0.328-1.748,0.508-3.549,0.508-5.393c0-16.017-12.979-29-29-29c-6.465,0-12.434,2.117-17.256,5.693
				C2317.44,8.463,2307.969,3.5,2297.333,3.5c-18.502,0-33.5,14.998-33.5,33.5c0,2.319,0.236,4.582,0.689,6.768
				c-4.082,3.394-6.689,8.508-6.689,14.232c0,1.945,0.305,3.819,0.861,5.58c-4.383-1.351-9.035-2.08-13.861-2.08
				c-17.545,0-32.832,9.62-40.906,23.865c-6.275-4.327-13.889-6.865-22.094-6.865c-7.779,0-15.02,2.287-21.104,6.211
				c-4.645-5.967-11.564-10.069-19.459-11.002c-3.426-11.578-12.207-20.854-23.484-24.942
				c-5.963-14.252-20.035-24.268-36.451-24.268c-12.27,0-23.234,5.597-30.479,14.378c-4.449-4.55-10.65-7.378-17.518-7.378
				c-3.648,0-7.109,0.804-10.225,2.234c-8.064-9.326-19.979-15.234-33.275-15.234c-20.77,0-38.156,14.388-42.783,33.734
				c-12.857,1.941-24.48,7.65-33.705,15.964c-2.439-0.451-4.943-0.699-7.512-0.699c-18.236,0-33.689,11.912-39.016,28.376
				c-4.02-0.891-8.193-1.376-12.484-1.376c-19.285,0-36.346,9.504-46.771,24.074c-0.738-0.044-1.479-0.074-2.229-0.074
				c-9.105,0-17.428,3.341-23.816,8.855c-5.328-8.897-15.059-14.855-26.184-14.855c-13.684,0-25.258,9.005-29.121,21.411
				c-7.152-4.68-15.693-7.411-24.879-7.411c-15.52,0-29.207,7.771-37.426,19.626c-8.691-14.735-24.729-24.626-43.074-24.626
				c-21.791,0-40.314,13.944-47.164,33.393c-1.742-0.255-3.521-0.393-5.34-0.393c-12.857,0-24.158,6.659-30.66,16.712
				c-6.293-12.293-19.076-20.712-33.836-20.712c-13.182,0-24.783,6.708-31.605,16.895c-10.145-6.269-22.098-9.895-34.895-9.895
				c-19.883,0-37.707,8.732-49.896,22.561c-6.055-3.529-13.092-5.561-20.604-5.561c-6.902,0-13.4,1.713-19.107,4.727
				c-5.926-9.441-16.422-15.727-28.393-15.727c-15.971,0-29.314,11.174-32.68,26.126c-1.1-0.074-2.207-0.126-3.32-0.126
				c-6.383,0-12.469,1.244-18.043,3.482c-9.02-16.381-26.439-27.482-46.459-27.482c-18.565,0-34.896,9.555-44.358,24.009
				c-13.896,0.142-25.844,8.373-31.368,20.212c-3.626-2.047-7.813-3.222-12.271-3.222c-7.469,0-14.166,3.278-18.745,8.47
				c-7.496-5.924-16.958-9.47-27.255-9.47c-17.354,0-32.354,10.049-39.518,24.642c-3.644-1.689-7.702-2.642-11.982-2.642
				c-10.106,0-18.979,5.269-24.041,13.203c-0.932,0.12-1.847,0.29-2.737,0.516c-5.265-5.377-12.604-8.718-20.722-8.718
				c-4.345,0-8.459,0.961-12.158,2.673c-2.212-0.438-4.499-0.673-6.842-0.673c-13.445,0-25.114,7.587-30.979,18.711
				c-3.959-2.354-8.582-3.711-13.521-3.711c-6.824,0-13.049,2.582-17.743,6.82c-5.626-4.277-12.645-6.82-20.257-6.82
				c-4.883,0-9.516,1.053-13.696,2.93c-4.083-9.373-13.425-15.93-24.304-15.93c-1.003,0-1.987,0.061-2.963,0.169
				c-4.856-5.612-12.028-9.169-20.037-9.169c-4.094,0-7.97,0.929-11.431,2.586c-10.093-9.066-23.436-14.586-38.069-14.586
				c-24.482,0-45.354,15.439-53.428,37.111c-0.85-0.067-1.706-0.111-2.572-0.111c-7.605,0-14.592,2.66-20.082,7.093
				c-7.313-13.737-21.771-23.093-38.418-23.093c-19.981,0-36.808,13.479-41.904,31.838c-0.808,1.717-1.438,3.532-1.874,5.42
				c-1.809-12.031-12.188-21.258-24.723-21.258c-4.438,0-8.604,1.162-12.218,3.191c-2.797-0.771-5.739-1.191-8.782-1.191
				c-9.733,0-18.481,4.218-24.522,10.924c-8.255-5.629-18.229-8.924-28.978-8.924c-19.772,0-36.938,11.15-45.564,27.504
				c-2.771-0.32-5.579-0.504-8.436-0.504c-17.095,0-32.795,5.932-45.188,15.827c-8.218-13.675-23.193-22.827-40.31-22.827
				c-18.005,0-33.638,10.129-41.532,24.996c-5.407-6.704-13.685-10.996-22.968-10.996c-7.374,0-14.111,2.712-19.283,7.186
				c-2.551-9.328-11.081-16.186-21.217-16.186c-6.959,0-13.16,3.234-17.191,8.279c-6.24-12.045-18.809-20.279-33.309-20.279
				c-3.056,0-6.022,0.374-8.866,1.064c-2.665-20.352-20.058-36.064-41.134-36.064c-10.897,0-20.808,4.206-28.212,11.075
				c-5.767-7.349-14.723-12.075-24.788-12.075c-10.958,0-20.605,5.598-26.248,14.087c-2.971-0.704-6.066-1.087-9.252-1.087
				c-3.507,0-6.907,0.455-10.148,1.303c-6.948-18.293-24.63-31.301-45.358-31.301c-26.786,0-48.5,21.714-48.5,48.5
				c0,14.701,6.55,27.863,16.879,36.758c-16.014,8.733-26.879,25.718-26.879,45.242c0,28.442,23.058,51.5,51.5,51.5
				c7.055,0,13.777-1.422,19.899-3.989c2.765,0.643,5.641,0.989,8.601,0.989c5.259,0,10.269-1.069,14.824-3.001
				c7.654,5.052,16.819,8.001,26.676,8.001c11.109,0,21.339-3.743,29.516-10.026c4.885,25.087,26.968,44.026,53.484,44.026
				c16.754,0,31.735-7.566,41.733-19.461c2.554,29.394,27.21,52.461,57.267,52.461c9.492,0,18.438-2.314,26.329-6.388
				c14.73,24.773,41.755,41.388,72.671,41.388c43.231,0,78.856-32.473,83.872-74.353c2.346,0.229,4.722,0.353,7.128,0.353
				c40.021,0,72.464-32.425,72.499-72.438c6.124-2.357,11.683-5.849,16.42-10.221c0.527,3.079,1.543,5.991,2.974,8.648
				c-6.631,12.541-10.392,26.834-10.392,42.008c0,49.705,40.294,90,90,90s90-40.295,90-90c0-7.616-0.95-15.01-2.731-22.073
				c10.074-0.594,19.092-5.108,25.548-12.047c6.524,3.271,13.889,5.12,21.686,5.12c18.646,0,34.823-10.527,42.939-25.956
				c3.377,2.341,7.201,4.073,11.323,5.048c4.601,28.854,29.587,50.908,59.735,50.908c33.413,0,60.5-27.087,60.5-60.5
				c0-1.192-0.044-2.374-0.112-3.549c17.103-0.884,31.04-13.7,33.664-30.281c3.8-1.076,7.335-2.773,10.491-4.982
				c0.891,26.83,22.909,48.313,49.958,48.313c27.614,0,50-22.386,50-50c0-1.021-0.041-2.039-0.101-3.048
				c11.175-0.478,21.266-5.118,28.768-12.414c6.361,8.76,16.679,14.462,28.333,14.462c19.33,0,35-15.67,35-35
				c0-0.413-0.017-0.821-0.031-1.229c1.731-0.194,3.424-0.518,5.069-0.953c9.333,8.201,21.562,13.185,34.962,13.185
				c8.857,0,17.199-2.185,24.539-6.024c8.746,12.696,23.377,21.024,39.961,21.024c26.785,0,48.5-21.714,48.5-48.5
				c0-0.397-0.02-0.791-0.029-1.187c7.197,11.805,20.193,19.687,35.029,19.687c4.025,0,7.908-0.59,11.582-1.67
				c11.117,21.198,33.322,35.67,58.918,35.67c35.889,0,65.121-28.435,66.439-64.001c0.02,0,0.043,0.001,0.063,0.001
				c13.701,0,25.707-7.254,32.393-18.129c6.18,11.394,18.238,19.129,32.107,19.129c11.035,0,20.918-4.903,27.611-12.642
				c7.33,4.217,15.822,6.642,24.889,6.642c18.123,0,33.994-9.642,42.762-24.074c8.18,12.111,22.027,20.074,37.738,20.074
				c25.033,0,45.338-20.216,45.492-45.211c2.703,0.782,5.555,1.211,8.508,1.211c5.963,0,11.521-1.717,16.219-4.674
				c5.449,13.301,18.521,22.674,33.781,22.674c2.273,0,4.492-0.218,6.65-0.615c10.51,11.44,25.59,18.615,42.35,18.615
				c28.184,0,51.615-20.282,56.535-47.042c11.762,11.766,28.014,19.042,45.965,19.042c16.09,0,30.807-5.858,42.156-15.543
				c3.611,0.999,7.414,1.543,11.344,1.543c10.252,0,19.654-3.63,26.996-9.674c6.115,4.207,13.521,6.674,21.504,6.674
				c16.127,0,29.898-10.052,35.416-24.229c1.176,0.145,2.369,0.229,3.584,0.229c10.314,0,19.359-5.386,24.502-13.494
				c4.484,2.842,9.797,4.494,15.498,4.494c2.506,0,4.939-0.318,7.258-0.916c5.377,15.102,19.795,25.916,36.742,25.916
				c12.188,0,23.063-5.589,30.211-14.341c8.469,8.251,20.031,13.341,32.789,13.341c23.963,0,43.723-17.938,46.621-41.116
				c2.672,0.724,5.48,1.116,8.379,1.116c11.746,0,22.008-6.332,27.574-15.765c1.727,0.487,3.543,0.765,5.426,0.765
				c7.209,0,13.508-3.826,17.027-9.546c-0.018,0.348-0.027,0.695-0.027,1.046c0,14.083,11.416,25.5,25.5,25.5
				c1.066,0,2.117-0.073,3.148-0.2c5.854,11.96,18.139,20.2,32.352,20.2c17.719,0,32.439-12.805,35.436-29.663
				C2458.231,103.716,2466.833,92.366,2466.833,79z"/>
		</g>
	</g>
	<polyline display="inline" fill="#FFFFFF" points="2477.333,62 2295.333,66 761.333,314 2471.87,320.094 	"/>
	<g id="Layer_2" display="inline">
	</g>
</g>
<g id="Layer_3">
	<g>
		<path fill="#B7C2C6" d="M2422.051,262.473c10.053-10.791,15.426-25.795,13.436-41.568c-0.277-2.188-0.701-4.321-1.236-6.405
			c0.146-0.019,0.281-0.022,0.422-0.042c13.322-1.684,23.863-10.857,27.936-22.768c1.457,0.104,2.924,0.172,4.404,0.172
			c34.52,0,62.5-27.979,62.5-62.5s-27.98-62.5-62.5-62.5c-23.637,0-44.195,13.121-54.818,32.473
			c-3.398-1.583-7.189-2.473-11.182-2.473c-3.164,0-6.193,0.557-9.012,1.573c-2.891-6.802-9.633-11.573-17.488-11.573
			c-4.842,0-9.238,1.824-12.6,4.803c-4.848-3.643-10.873-5.803-17.4-5.803c-16.02,0-29,12.983-29,29
			c0,14.373,10.457,26.296,24.18,28.594c-7.863,8.736-12.496,20.294-12.342,32.676c-0.906,0.332-1.777,0.728-2.621,1.173
			c-5.729-9.587-16.748-15.402-28.537-13.914c-11.115,1.401-19.959,8.93-23.586,18.764c-0.504-0.225-1.016-0.437-1.525-0.641
			c-0.041-1.27-0.137-2.546-0.299-3.83c-0.473-3.733-1.439-7.285-2.814-10.603c5.314-6.07,8.547-14.015,8.547-22.719
			c0-4.539-0.885-8.869-2.479-12.839c8.809-1.653,15.479-9.373,15.479-18.661c0-10.493-8.506-19-19-19
			c-9.939,0-18.082,7.636-18.916,17.359c-3.045-0.878-6.256-1.359-9.584-1.359c-12.922,0-24.178,7.11-30.09,17.627
			c-5.652-4.757-12.943-7.627-20.91-7.627c-15.023,0-27.66,10.198-31.383,24.047c-1.73-0.237-3.482-0.382-5.258-0.42
			c-1.441-14.901-13.969-26.558-29.23-26.624c-3.293-9.322-12.18-16.003-22.629-16.003c-2.164,0-4.26,0.291-6.256,0.828
			c-4.604-3.646-10.416-5.828-16.744-5.828c-8.639,0-16.322,4.061-21.264,10.371c-4.604-11.357-15.73-19.371-28.736-19.371
			c-17.121,0-31,13.879-31,31c0,17.121,13.879,31,31,31c10.805,0,20.311-5.529,25.859-13.908
			c4.436,8.839,13.576,14.908,24.141,14.908c4.652,0,9.031-1.178,12.854-3.25c1.023,0.479,2.088,0.889,3.186,1.221
			c0.258,5.181,1.854,10.007,4.438,14.147c-0.502,0.045-1.004,0.088-1.51,0.148c-13.104,1.653-23.977,9.33-30.199,19.896
			c-3.746-0.801-7.686-1.006-11.699-0.498c-19.18,2.422-32.764,19.93-30.344,39.104c0.055,0.415,0.121,0.823,0.189,1.231
			c-0.018,0-0.033,0-0.053,0c-2.775-18.776-20.064-31.979-38.992-29.592c-1.01,0.129-2.002,0.308-2.98,0.518
			c-3.229-22.354-21.768-38.848-43.605-40.171c-1.762-5.095-6.586-8.76-12.277-8.76c-7.18,0-13,5.82-13,13
			c0,0.438,0.023,0.875,0.064,1.306c-4.818,2.604-9.102,6.008-12.689,10.021c-6.373-5.203-14.512-8.326-23.381-8.326
			c-14.316,0-26.729,8.142-32.881,20.041c-2.295-6.988-8.859-12.041-16.619-12.041c-9.656,0-17.484,7.824-17.498,17.479
			c-3.201,0.685-6.131,2.087-8.631,4.021c-1.096,0.058-2.193,0.141-3.303,0.278c-17.582,2.22-31.414,14.528-36.441,30.382
			c-6.26-3.98-13.891-5.89-21.824-4.888c-1.041,0.134-2.063,0.315-3.064,0.539c-1.539-10.081-10.225-17.813-20.732-17.813
			c-5.396,0-10.299,2.054-14.018,5.396c-5.838-5.218-13.537-8.396-21.982-8.396c-11.479,0-21.58,5.859-27.492,14.748
			c-5.828-5.187-13.773-7.928-22.121-6.875c-11.088,1.399-19.834,9.104-23.104,19.063c-0.23,0.023-0.457,0.04-0.689,0.066
			c-0.254,0.033-0.502,0.08-0.754,0.115c-10.125-8.643-23.715-13.154-37.959-11.354c-11.377,1.438-21.338,6.673-28.793,14.264
			c-2.877-1.838-6.02-3.276-9.332-4.271c-2.563-12.717-14.549-21.489-27.625-19.842c-6.719,0.851-12.471,4.291-16.391,9.192
			c-4.115-13.813-17.725-23.03-32.494-21.167c-7.662,0.967-14.277,4.744-18.953,10.164c-5.063-1.752-10.59-2.404-16.264-1.688
			c-14.984,1.891-26.643,12.738-30.293,26.494c-7.402-4.426-16.277-6.51-25.498-5.347c-8.627,1.089-16.256,4.854-22.176,10.354
			c-8.834-6.676-20.174-10.049-32.025-8.556c-17.6,2.224-31.439,14.558-36.455,30.433c-4.754-2.299-10.066-3.543-15.607-3.472
			c-0.037-0.405-0.068-0.813-0.123-1.226c-2.402-19.059-19.713-32.586-38.75-30.379c-11.198-13.155-28.595-20.594-47.017-18.268
			c-19.86,2.506-35.756,15.7-42.65,33.08c-5.813-1.521-12.009-1.994-18.337-1.195c-1.108,0.142-2.2,0.33-3.282,0.541
			c-5.206-14.412-19.85-23.826-35.688-21.83c-11.876,1.5-21.504,9.049-26.199,19.158c-6.039-2.273-12.701-3.162-19.55-2.297
			c-7.455,0.938-14.183,3.836-19.748,8.096c-8.854-7.813-19.748-13.256-31.625-15.502c-5.955-12.572-18.021-21.394-31.938-23.133
			c-12.016-10.404-28.229-15.863-45.237-13.718c-6.357,0.804-12.336,2.621-17.814,5.246c-7.544-7.037-18.039-10.801-29.074-9.407
			c-5.023,0.635-9.674,2.278-13.773,4.698c-5.422-1.229-11.146-1.556-16.98-0.817c-15.892,2.006-29.036,11.412-36.419,24.321
			c-5.144-1.022-10.53-1.264-16.021-0.569c-18.206,2.297-32.873,14.117-39.658,29.826c-9.633-10.732-24.19-16.729-39.583-14.787
			c-9.111,1.147-17.245,4.928-23.754,10.467c-5.393-11.823-18.003-19.312-31.574-17.598c-11.037,1.395-19.943,8.521-24.115,18.016
			c-7.032-4.67-15.706-6.94-24.738-5.803c-0.743,0.094-1.478,0.215-2.201,0.354c-12.173-13.149-30.283-20.442-49.417-18.028
			c-4.258,0.536-8.34,1.541-12.22,2.929c-7.345-15.668-24.161-25.552-42.258-23.27c-2.547,0.32-5.004,0.882-7.362,1.634
			c-10.195-7.095-22.438-11.305-35.438-11.618c-7.013-18.615-26.067-30.711-46.67-28.114c-13.195,1.665-24.273,9.02-31.11,19.282
			c-3.267-1.029-6.8-1.396-10.42-0.938c-6.812,0.856-12.611,4.438-16.455,9.513c-8.287-7.805-19.867-11.982-32.044-10.445
			c-1.801,0.228-3.554,0.582-5.261,1.037c-4.998-9.035-15.14-14.592-26.01-13.222c-12.53,1.582-21.842,11.835-22.682,23.978
			c-5.087-2.506-10.938-3.604-16.985-2.842c-12.291,1.551-21.9,10.334-25.1,21.537c-2.809,2.928-4.971,6.443-6.302,10.314
			c-0.218-0.111-0.443-0.208-0.665-0.313c0.837-2.309,1.166-4.84,0.838-7.44c-1.105-8.771-9.109-14.979-17.877-13.872
			c-4.856,0.612-8.922,3.348-11.4,7.151c-6.5-2.808-13.808-3.973-21.34-3.021c-22.324,2.814-38.169,23.086-35.588,45.387
			c-3.867-5.82-10.796-9.297-18.2-8.359c-1.581,0.199-3.081,0.605-4.502,1.16c-6.981-7.988-17.682-12.475-28.999-11.047
			c-8.901,1.123-16.52,5.699-21.693,12.211c-8.037-6.092-18.362-9.172-29.156-7.811c-21.917,2.766-37.442,22.773-34.677,44.691
			c0.35,2.772,0.979,5.443,1.85,7.988c-263.76,23.967-532.126,69.405-803.454,149.392
			c519.02,176.816,1038.038,353.639,1557.058,530.458c314.889-222.506,861.09-111.425,1545.743-402.738
			c196.643-128.66,393.281-257.32,589.922-385.979C2722.776,211.566,2575.01,242.777,2422.051,262.473z M1837.713,264.23
			c-0.09-0.028-0.182-0.059-0.271-0.084c0.064-0.066,0.133-0.133,0.197-0.201C1837.665,264.041,1837.688,264.137,1837.713,264.23z
			 M2374.553,124.859c0.053,0.922,0.152,1.832,0.295,2.727c-1.459,0.017-2.93,0.104-4.408,0.256
			c0.518-1.031,0.979-2.096,1.373-3.193c0.883,0.125,1.777,0.213,2.695,0.213C2374.524,124.861,2374.538,124.859,2374.553,124.859z
			 M1842.528,197.577c0.137,7.169,2.309,13.837,5.967,19.45c-0.359,0.416-0.705,0.84-1.049,1.266
			c-2.049-5.661-5.203-10.732-9.182-14.992c-0.109-0.777-0.264-1.542-0.453-2.291
			C1839.571,200.13,1841.167,198.973,1842.528,197.577z"/>
	</g>
</g>
<circle fill="#B7C2C6" cx="1839.719" cy="204.739" r="17"/>
<circle fill="#B7C2C6" cx="2306.385" cy="156.74" r="48.333"/>
<circle fill="#B7C2C6" cx="2291.385" cy="91.739" r="29.333"/>
<circle fill="#B7C2C6" cx="2332.719" cy="91.74" r="20"/>
<circle fill="#B7C2C6" cx="2316.385" cy="110.739" r="8.333"/>
<circle fill="#B7C2C6" cx="2367.385" cy="113.74" r="18"/>
<circle fill="#B7C2C6" cx="1996.385" cy="200.739" r="69"/>
<circle fill="#B7C2C6" cx="2069.385" cy="161.072" r="49.333"/>
<circle fill="#B7C2C6" cx="1950.719" cy="143.739" r="26"/>
<circle fill="#B7C2C6" cx="1995.051" cy="136.74" r="26.333"/>
<circle fill="#B7C2C6" cx="2430.042" cy="248.406" r="46"/>
<circle fill="#B7C2C6" cx="2460.042" cy="222.406" r="40"/>
<rect x="-252.287" y="339.244" fill="#B7C2C6" width="3039.304" height="606.061"/>
</svg>
