<?xml version="1.0" encoding="utf-8"?>
<!-- Generator: Adobe Illustrator 16.0.0, SVG Export Plug-In . SVG Version: 6.00 Build 0)  -->
<!DOCTYPE svg PUBLIC "-//W3C//DTD SVG 1.1//EN" "http://www.w3.org/Graphics/SVG/1.1/DTD/svg11.dtd">
<svg version="1.1" id="Layer_1" xmlns="http://www.w3.org/2000/svg" xmlns:xlink="http://www.w3.org/1999/xlink" x="0px" y="0px"
	 width="2455.083px" height="753.286px" viewBox="0 0 2455.083 753.286" enable-background="new 0 0 2455.083 753.286"
	 xml:space="preserve">
<g id="Layer_1_1_">
	<g>
		<g>
			<path fill="#FFFFFF" d="M2466.833,79c0-16.845-13.654-30.5-30.5-30.5c-5.611,0-10.865,1.522-15.383,4.167
				c-6.121-8.002-15.764-13.167-26.617-13.167c-8.322,0-15.932,3.042-21.791,8.066c-0.992-0.98-2.068-1.874-3.217-2.674
				c0.328-1.748,0.508-3.549,0.508-5.393c0-16.017-12.98-29-29-29c-6.465,0-12.434,2.117-17.256,5.693
				C2317.44,8.463,2307.969,3.5,2297.333,3.5c-18.502,0-33.5,14.998-33.5,33.5c0,2.319,0.236,4.582,0.688,6.768
				c-4.082,3.394-6.688,8.508-6.688,14.232c0,1.945,0.305,3.819,0.861,5.58c-4.383-1.351-9.035-2.08-13.861-2.08
				c-17.545,0-32.832,9.62-40.906,23.865c-6.277-4.327-13.889-6.865-22.094-6.865c-7.779,0-15.02,2.287-21.104,6.211
				c-4.645-5.967-11.564-10.069-19.459-11.002c-3.426-11.578-12.207-20.854-23.484-24.942
				c-5.963-14.252-20.035-24.268-36.451-24.268c-12.27,0-23.236,5.597-30.48,14.378c-4.449-4.55-10.65-7.378-17.518-7.378
				c-3.648,0-7.109,0.804-10.223,2.234c-8.066-9.326-19.979-15.234-33.277-15.234c-20.768,0-38.156,14.388-42.783,33.734
				c-12.857,1.941-24.48,7.65-33.705,15.964c-2.439-0.451-4.943-0.699-7.512-0.699c-18.236,0-33.689,11.912-39.014,28.376
				c-4.02-0.891-8.195-1.376-12.486-1.376c-19.285,0-36.344,9.504-46.771,24.074c-0.738-0.044-1.479-0.074-2.229-0.074
				c-9.105,0-17.426,3.341-23.816,8.855c-5.328-8.897-15.059-14.855-26.184-14.855c-13.682,0-25.256,9.005-29.121,21.411
				c-7.152-4.68-15.693-7.411-24.879-7.411c-15.518,0-29.207,7.771-37.424,19.626c-8.693-14.735-24.729-24.626-43.076-24.626
				c-21.791,0-40.314,13.944-47.164,33.393c-1.742-0.255-3.521-0.393-5.338-0.393c-12.859,0-24.16,6.659-30.662,16.712
				c-6.293-12.293-19.076-20.712-33.836-20.712c-13.18,0-24.783,6.708-31.604,16.895c-10.145-6.269-22.098-9.895-34.896-9.895
				c-19.881,0-37.707,8.732-49.896,22.561c-6.055-3.529-13.092-5.561-20.604-5.561c-6.902,0-13.4,1.713-19.107,4.727
				c-5.926-9.442-16.422-15.727-28.393-15.727c-15.969,0-29.314,11.174-32.678,26.126c-1.1-0.074-2.207-0.126-3.322-0.126
				c-6.381,0-12.467,1.244-18.043,3.482c-9.018-16.381-26.439-27.482-46.459-27.482c-18.565,0-34.895,9.555-44.358,24.009
				c-13.896,0.142-25.844,8.373-31.368,20.212c-3.626-2.047-7.813-3.222-12.271-3.222c-7.469,0-14.166,3.278-18.746,8.47
				c-7.496-5.924-16.958-9.47-27.254-9.47c-17.354,0-32.354,10.049-39.518,24.642c-3.644-1.69-7.702-2.642-11.982-2.642
				c-10.107,0-18.98,5.269-24.041,13.203c-0.932,0.12-1.847,0.29-2.738,0.516c-5.264-5.377-12.603-8.718-20.721-8.718
				c-4.345,0-8.459,0.961-12.159,2.673c-2.212-0.438-4.499-0.673-6.841-0.673c-13.446,0-25.115,7.587-30.979,18.711
				c-3.959-2.354-8.582-3.711-13.521-3.711c-6.825,0-13.049,2.582-17.744,6.82c-5.626-4.277-12.644-6.82-20.256-6.82
				c-4.883,0-9.516,1.053-13.697,2.93c-4.083-9.373-13.425-15.93-24.303-15.93c-1.003,0-1.988,0.061-2.963,0.169
				c-4.857-5.612-12.029-9.169-20.037-9.169c-4.094,0-7.97,0.929-11.431,2.586c-10.093-9.066-23.436-14.586-38.069-14.586
				c-24.483,0-45.355,15.439-53.428,37.111c-0.85-0.067-1.706-0.111-2.572-0.111c-7.606,0-14.592,2.66-20.082,7.093
				c-7.313-13.737-21.771-23.093-38.418-23.093c-19.982,0-36.808,13.479-41.905,31.838c-0.807,1.717-1.437,3.532-1.874,5.42
				c-1.808-12.031-12.187-21.258-24.722-21.258c-4.438,0-8.604,1.162-12.218,3.191c-2.797-0.771-5.739-1.191-8.782-1.191
				c-9.734,0-18.482,4.218-24.523,10.924c-8.255-5.629-18.229-8.924-28.977-8.924c-19.773,0-36.938,11.15-45.565,27.504
				c-2.771-0.32-5.579-0.504-8.435-0.504c-17.095,0-32.795,5.932-45.188,15.827c-8.218-13.675-23.193-22.827-40.31-22.827
				c-18.005,0-33.638,10.129-41.532,24.996c-5.407-6.704-13.685-10.996-22.968-10.996c-7.374,0-14.111,2.712-19.283,7.186
				c-2.551-9.328-11.081-16.186-21.217-16.186c-6.959,0-13.16,3.234-17.191,8.279c-6.24-12.045-18.809-20.279-33.309-20.279
				c-3.056,0-6.022,0.374-8.866,1.064c-2.665-20.351-20.058-36.064-41.134-36.064c-10.897,0-20.808,4.206-28.212,11.075
				c-5.767-7.349-14.723-12.075-24.788-12.075c-10.958,0-20.605,5.598-26.248,14.087c-2.971-0.704-6.066-1.087-9.252-1.087
				c-3.507,0-6.907,0.455-10.148,1.303C65.743,229.508,48.061,216.5,27.333,216.5c-26.786,0-48.5,21.714-48.5,48.5
				c0,14.701,6.55,27.863,16.879,36.758c-16.014,8.733-26.879,25.718-26.879,45.242c0,28.442,23.058,51.5,51.5,51.5
				c7.055,0,13.777-1.422,19.899-3.989c2.765,0.642,5.641,0.989,8.601,0.989c5.259,0,10.269-1.069,14.824-3.001
				c7.654,5.052,16.819,8.001,26.676,8.001c11.109,0,21.339-3.743,29.516-10.026c4.885,25.087,26.968,44.026,53.484,44.026
				c16.754,0,31.735-7.566,41.733-19.461c2.554,29.394,27.21,52.461,57.267,52.461c9.492,0,18.438-2.314,26.329-6.388
				c14.73,24.774,41.755,41.388,72.671,41.388c43.231,0,78.856-32.473,83.872-74.353c2.346,0.229,4.722,0.353,7.128,0.353
				c40.021,0,72.464-32.425,72.499-72.438c6.124-2.357,11.683-5.848,16.42-10.22c0.527,3.079,1.543,5.991,2.974,8.648
				c-6.631,12.541-10.392,26.834-10.392,42.008c0,49.705,40.294,90,90,90s90-40.295,90-90c0-7.616-0.95-15.01-2.731-22.073
				c10.074-0.594,19.091-5.109,25.547-12.047c6.525,3.271,13.889,5.12,21.686,5.12c18.646,0,34.823-10.527,42.939-25.956
				c3.377,2.341,7.202,4.073,11.324,5.048c4.6,28.854,29.587,50.908,59.735,50.908c33.413,0,60.5-27.087,60.5-60.5
				c0-1.192-0.044-2.374-0.112-3.549c17.102-0.884,31.04-13.7,33.664-30.281c3.8-1.076,7.335-2.774,10.491-4.983
				c0.891,26.831,22.909,48.313,49.958,48.313c27.614,0,50-22.386,50-50c0-1.022-0.041-2.039-0.101-3.048
				c11.175-0.477,21.266-5.118,28.768-12.414c6.361,8.76,16.679,14.462,28.333,14.462c19.33,0,35-15.67,35-35
				c0-0.413-0.017-0.821-0.031-1.229c1.731-0.194,3.424-0.517,5.069-0.953c9.333,8.201,21.562,13.185,34.962,13.185
				c8.857,0,17.199-2.185,24.539-6.024c8.746,12.696,23.377,21.024,39.961,21.024c26.785,0,48.5-21.714,48.5-48.5
				c0-0.397-0.02-0.791-0.029-1.187c7.197,11.805,20.193,19.687,35.029,19.687c4.025,0,7.908-0.59,11.582-1.67
				c11.117,21.198,33.322,35.67,58.918,35.67c35.889,0,65.121-28.435,66.439-64.001c0.02,0,0.043,0.001,0.063,0.001
				c13.701,0,25.707-7.254,32.393-18.129c6.178,11.394,18.238,19.129,32.107,19.129c11.035,0,20.918-4.903,27.611-12.642
				c7.33,4.217,15.822,6.642,24.889,6.642c18.123,0,33.994-9.642,42.762-24.074c8.178,12.111,22.027,20.074,37.738,20.074
				c25.033,0,45.338-20.216,45.492-45.211c2.703,0.782,5.555,1.211,8.508,1.211c5.963,0,11.521-1.717,16.219-4.674
				c5.449,13.301,18.52,22.674,33.781,22.674c2.273,0,4.492-0.218,6.65-0.615c10.51,11.44,25.59,18.615,42.35,18.615
				c28.184,0,51.615-20.282,56.535-47.042c11.762,11.766,28.014,19.042,45.965,19.042c16.09,0,30.805-5.858,42.156-15.543
				c3.611,0.999,7.414,1.543,11.344,1.543c10.252,0,19.654-3.63,26.996-9.674c6.115,4.207,13.521,6.674,21.504,6.674
				c16.127,0,29.898-10.052,35.416-24.229c1.176,0.145,2.369,0.229,3.584,0.229c10.313,0,19.359-5.386,24.502-13.494
				c4.484,2.842,9.797,4.494,15.498,4.494c2.506,0,4.939-0.318,7.258-0.916c5.377,15.102,19.795,25.916,36.742,25.916
				c12.186,0,23.061-5.589,30.211-14.341c8.469,8.251,20.031,13.341,32.789,13.341c23.963,0,43.723-17.938,46.621-41.116
				c2.672,0.724,5.479,1.116,8.379,1.116c11.746,0,22.008-6.332,27.574-15.765c1.727,0.487,3.543,0.765,5.426,0.765
				c7.209,0,13.508-3.826,17.027-9.546c-0.018,0.348-0.027,0.695-0.027,1.046c0,14.083,11.416,25.5,25.5,25.5
				c1.066,0,2.117-0.073,3.148-0.2c5.854,11.96,18.139,20.2,32.352,20.2c17.719,0,32.439-12.805,35.434-29.663
				C2458.231,103.716,2466.833,92.366,2466.833,79z"/>
		</g>
	</g>
	<polyline fill="#FFFFFF" points="2477.333,62 2295.333,66 761.333,314 2471.87,320.094 	"/>
	<g id="Layer_2">
	</g>
</g>
<g id="Layer_3" display="none">
	<g display="inline">
		<path fill="#B7C2C6" d="M2422.051,262.473c10.053-10.791,15.426-25.795,13.436-41.568c-0.277-2.188-0.701-4.322-1.236-6.406
			c0.145-0.018,0.281-0.023,0.422-0.042c13.322-1.683,23.863-10.858,27.934-22.767c1.457,0.104,2.924,0.172,4.404,0.172
			c34.52,0,62.5-27.98,62.5-62.5s-27.98-62.5-62.5-62.5c-23.635,0-44.195,13.121-54.818,32.473
			c-3.398-1.583-7.188-2.473-11.182-2.473c-3.164,0-6.193,0.557-9.01,1.573c-2.891-6.802-9.633-11.573-17.49-11.573
			c-4.84,0-9.238,1.824-12.598,4.803c-4.848-3.643-10.873-5.803-17.402-5.803c-16.018,0-29,12.983-29,29
			c0,14.373,10.457,26.296,24.18,28.594c-7.863,8.736-12.496,20.294-12.342,32.676c-0.906,0.332-1.777,0.728-2.621,1.173
			c-5.727-9.587-16.748-15.402-28.537-13.914c-11.115,1.401-19.959,8.93-23.586,18.764c-0.504-0.225-1.014-0.437-1.525-0.641
			c-0.041-1.27-0.137-2.546-0.299-3.83c-0.473-3.734-1.438-7.285-2.814-10.603c5.314-6.07,8.547-14.015,8.547-22.719
			c0-4.539-0.885-8.869-2.479-12.839c8.809-1.653,15.479-9.373,15.479-18.661c0-10.493-8.506-19-19-19
			c-9.939,0-18.082,7.636-18.916,17.359c-3.045-0.878-6.256-1.359-9.584-1.359c-12.922,0-24.178,7.11-30.09,17.627
			c-5.652-4.757-12.943-7.627-20.91-7.627c-15.023,0-27.66,10.198-31.383,24.047c-1.73-0.237-3.482-0.382-5.258-0.42
			c-1.441-14.901-13.969-26.558-29.23-26.624c-3.293-9.322-12.18-16.003-22.629-16.003c-2.164,0-4.26,0.291-6.256,0.828
			c-4.604-3.646-10.416-5.828-16.744-5.828c-8.639,0-16.322,4.061-21.264,10.371c-4.604-11.357-15.73-19.371-28.736-19.371
			c-17.121,0-31,13.879-31,31c0,17.121,13.879,31,31,31c10.805,0,20.311-5.529,25.859-13.908
			c4.436,8.839,13.576,14.908,24.141,14.908c4.652,0,9.031-1.178,12.854-3.25c1.023,0.479,2.088,0.889,3.184,1.221
			c0.258,5.181,1.854,10.007,4.439,14.147c-0.502,0.045-1.004,0.088-1.51,0.149c-13.105,1.653-23.977,9.33-30.199,19.896
			c-3.746-0.801-7.686-1.006-11.701-0.498c-19.178,2.422-32.762,19.93-30.342,39.105c0.053,0.415,0.121,0.823,0.188,1.232
			c-0.018,0-0.033,0-0.053,0c-2.775-18.777-20.064-31.979-38.992-29.592c-1.01,0.129-2.002,0.307-2.979,0.517
			c-3.23-22.354-21.768-38.848-43.607-40.171c-1.76-5.095-6.586-8.76-12.277-8.76c-7.18,0-13,5.82-13,13
			c0,0.438,0.023,0.875,0.064,1.305c-4.818,2.604-9.1,6.008-12.688,10.021c-6.373-5.203-14.512-8.326-23.381-8.326
			c-14.316,0-26.729,8.141-32.881,20.041c-2.295-6.989-8.859-12.041-16.619-12.041c-9.656,0-17.484,7.824-17.498,17.479
			c-3.201,0.684-6.131,2.087-8.631,4.021c-1.096,0.057-2.193,0.14-3.303,0.278c-17.582,2.22-31.414,14.528-36.441,30.382
			c-6.26-3.981-13.891-5.89-21.824-4.888c-1.041,0.134-2.064,0.315-3.066,0.539c-1.539-10.081-10.223-17.813-20.732-17.813
			c-5.395,0-10.299,2.053-14.018,5.396c-5.836-5.218-13.537-8.396-21.982-8.396c-11.477,0-21.58,5.859-27.492,14.748
			c-5.828-5.187-13.773-7.928-22.121-6.875c-11.088,1.399-19.834,9.104-23.104,19.062c-0.23,0.024-0.457,0.04-0.688,0.067
			c-0.254,0.033-0.502,0.08-0.754,0.115c-10.125-8.643-23.715-13.154-37.959-11.355c-11.377,1.438-21.338,6.673-28.793,14.264
			c-2.877-1.838-6.02-3.277-9.332-4.27c-2.564-12.717-14.549-21.49-27.625-19.842c-6.719,0.85-12.471,4.291-16.391,9.192
			c-4.115-13.813-17.725-23.03-32.494-21.167c-7.662,0.967-14.277,4.744-18.953,10.164c-5.063-1.752-10.59-2.404-16.264-1.688
			c-14.984,1.891-26.643,12.739-30.293,26.494c-7.402-4.425-16.277-6.509-25.498-5.346c-8.627,1.089-16.256,4.855-22.176,10.354
			c-8.834-6.676-20.174-10.049-32.025-8.555c-17.6,2.223-31.439,14.557-36.455,30.432c-4.754-2.299-10.066-3.543-15.607-3.471
			c-0.037-0.406-0.07-0.814-0.123-1.226c-2.404-19.058-19.713-32.586-38.75-30.379c-11.198-13.155-28.595-20.593-47.017-18.267
			c-19.86,2.506-35.756,15.7-42.65,33.08c-5.814-1.521-12.009-1.994-18.337-1.195c-1.108,0.141-2.2,0.33-3.282,0.541
			c-5.206-14.412-19.85-23.827-35.688-21.83c-11.876,1.5-21.504,9.048-26.199,19.158c-6.039-2.274-12.701-3.162-19.55-2.297
			c-7.455,0.938-14.182,3.836-19.748,8.096c-8.855-7.813-19.748-13.256-31.625-15.502c-5.955-12.573-18.021-21.394-31.938-23.133
			c-12.016-10.404-28.229-15.863-45.238-13.718c-6.357,0.804-12.336,2.621-17.814,5.246c-7.544-7.037-18.039-10.801-29.074-9.407
			c-5.024,0.635-9.674,2.278-13.774,4.698c-5.422-1.229-11.146-1.555-16.98-0.817c-15.892,2.006-29.036,11.412-36.419,24.321
			c-5.144-1.022-10.531-1.264-16.021-0.569c-18.206,2.297-32.873,14.117-39.658,29.826c-9.633-10.733-24.19-16.729-39.583-14.787
			c-9.111,1.147-17.245,4.928-23.754,10.467c-5.392-11.824-18.003-19.312-31.574-17.598c-11.037,1.394-19.943,8.521-24.115,18.016
			c-7.033-4.67-15.706-6.941-24.739-5.803c-0.743,0.094-1.477,0.215-2.201,0.353c-12.173-13.149-30.283-20.442-49.417-18.028
			c-4.258,0.536-8.34,1.541-12.22,2.928c-7.344-15.668-24.161-25.551-42.257-23.269c-2.547,0.321-5.004,0.882-7.363,1.634
			c-10.195-7.095-22.438-11.305-35.438-11.619c-7.013-18.615-26.068-30.711-46.67-28.113c-13.195,1.665-24.273,9.02-31.11,19.281
			c-3.267-1.029-6.8-1.396-10.42-0.938c-6.812,0.857-12.611,4.439-16.455,9.513c-8.287-7.805-19.867-11.983-32.044-10.446
			c-1.801,0.228-3.554,0.582-5.261,1.037c-4.998-9.035-15.14-14.591-26.01-13.221c-12.53,1.582-21.842,11.835-22.682,23.977
			c-5.087-2.506-10.938-3.604-16.985-2.842c-12.291,1.551-21.9,10.334-25.1,21.538c-2.809,2.927-4.971,6.443-6.302,10.314
			c-0.218-0.111-0.443-0.208-0.665-0.313c0.837-2.309,1.166-4.84,0.838-7.441c-1.105-8.77-9.109-14.979-17.877-13.872
			c-4.856,0.612-8.922,3.348-11.4,7.151c-6.5-2.807-13.808-3.972-21.34-3.021c-22.324,2.815-38.169,23.086-35.588,45.387
			c-3.867-5.821-10.796-9.297-18.2-8.36c-1.581,0.199-3.081,0.606-4.502,1.16c-6.981-7.988-17.682-12.474-28.999-11.046
			c-8.901,1.123-16.52,5.699-21.693,12.21c-8.037-6.091-18.362-9.171-29.156-7.81c-21.917,2.766-37.442,22.774-34.677,44.692
			c0.35,2.772,0.979,5.443,1.85,7.988c-263.76,23.967-532.126,69.405-803.454,149.391
			c519.02,176.817,1038.038,353.639,1557.058,530.458c314.889-222.505,861.091-111.424,1545.742-402.738
			c196.643-128.66,393.281-257.32,589.922-385.979C2722.776,211.566,2575.01,242.777,2422.051,262.473z M1837.713,264.23
			c-0.09-0.028-0.182-0.058-0.271-0.084c0.064-0.066,0.133-0.133,0.197-0.201C1837.665,264.041,1837.688,264.137,1837.713,264.23z
			 M2374.553,124.859c0.053,0.922,0.152,1.832,0.295,2.727c-1.459,0.017-2.93,0.104-4.408,0.256
			c0.518-1.031,0.979-2.096,1.373-3.193c0.883,0.125,1.777,0.213,2.695,0.213C2374.524,124.861,2374.538,124.859,2374.553,124.859z
			 M1842.528,197.577c0.137,7.169,2.309,13.837,5.967,19.45c-0.359,0.416-0.705,0.84-1.049,1.266
			c-2.049-5.661-5.203-10.732-9.182-14.992c-0.109-0.777-0.264-1.542-0.453-2.291
			C1839.571,200.13,1841.167,198.973,1842.528,197.577z"/>
	</g>
</g>
<circle display="none" fill="#B7C2C6" cx="1839.719" cy="204.739" r="17"/>
<circle display="none" fill="#B7C2C6" cx="2306.385" cy="156.74" r="48.333"/>
<circle display="none" fill="#B7C2C6" cx="2291.385" cy="91.739" r="29.333"/>
<circle display="none" fill="#B7C2C6" cx="2332.719" cy="91.74" r="20"/>
<circle display="none" fill="#B7C2C6" cx="2316.385" cy="110.739" r="8.333"/>
<circle display="none" fill="#B7C2C6" cx="2367.385" cy="113.74" r="18"/>
<circle display="none" fill="#B7C2C6" cx="1996.385" cy="200.739" r="69"/>
<circle display="none" fill="#B7C2C6" cx="2069.385" cy="161.072" r="49.333"/>
<circle display="none" fill="#B7C2C6" cx="1950.719" cy="143.739" r="26"/>
<circle display="none" fill="#B7C2C6" cx="1995.051" cy="136.74" r="26.333"/>
<circle display="none" fill="#B7C2C6" cx="2430.042" cy="248.406" r="46"/>
<circle display="none" fill="#B7C2C6" cx="2460.042" cy="222.406" r="40"/>
<g display="none">
	<g display="inline">
		<path fill-rule="evenodd" clip-rule="evenodd" fill="#85989E" d="M2459.43,161.146c-2.213-5.587-6.076-10.34-10.998-13.647
			c2.594-4.931,4.068-10.541,4.068-16.499c0-0.338-0.016-0.672-0.025-1.008c9.087-6.429,15.025-17.013,15.025-28.992
			c0-6.198-1.592-12.022-4.383-17.093c9.164-5.005,15.383-14.729,15.383-25.907c0-13.024-8.445-24.07-20.155-27.979
			c-5.227-10.952-16.4-18.521-29.345-18.521c-15.772,0-28.917,11.237-31.874,26.142c-0.698-0.084-1.405-0.142-2.126-0.142
			c-8.261,0-15.165,5.729-17.004,13.425C2373.083,43.443,2364.621,38.5,2355,38.5c-15.188,0-27.5,12.312-27.5,27.5
			c0,3.105,0.522,6.086,1.471,8.87c-13.31,2.166-23.471,13.708-23.471,27.63c0,4.234,0.945,8.245,2.627,11.843
			c-15.026,2.683-27.855,11.689-35.636,24.178c-3.389-4.272-8.615-7.021-14.491-7.021c-0.381,0-0.754,0.034-1.13,0.057
			c-3.472-2.54-7.739-4.057-12.37-4.057c-7.689,0-14.396,4.146-18.054,10.313c-6.602-8.121-16.666-13.313-27.946-13.313
			c-16.813,0-30.932,11.526-34.891,27.108c-2.882-1.96-6.361-3.108-10.109-3.108c-9.941,0-18,8.059-18,18
			c0,0.242,0.027,0.479,0.036,0.719c-3.962-2.359-8.59-3.719-13.536-3.719c-2.795,0-5.486,0.436-8.016,1.237
			c-5.779-5.71-13.719-9.237-22.484-9.237c-17.674,0-32,14.327-32,32c0,4.725,1.032,9.205,2.869,13.241
			c-1.828,3.343-2.869,7.179-2.869,11.259c0,0.898,0.056,1.784,0.153,2.656c-5.396-3.51-11.649-5.888-18.466-6.747
			c-20.603-2.599-39.662,9.495-46.674,28.105c-6.019,0.146-11.869,1.142-17.437,2.855c0.272-1.583,0.423-3.209,0.423-4.87
			c0-15.74-12.76-28.5-28.5-28.5c-8.579,0-16.268,3.796-21.492,9.794c-2.984-5.811-9.025-9.794-16.008-9.794
			c-9.941,0-18,8.059-18,18c0,1.725,0.257,3.386,0.709,4.965c-11.928,3.209-20.709,14.094-20.709,27.035
			c0,2.212,0.265,4.361,0.75,6.426c-1.041-0.268-2.126-0.426-3.25-0.426c-7.18,0-13,5.82-13,13c0,0.373,0.025,0.739,0.056,1.104
			c-0.855,0.573-1.696,1.167-2.52,1.785c-3.983-3.964-9.474-6.415-15.536-6.415c-9.82,0-18.135,6.427-20.977,15.302
			c-4.661-7.693-12.658-13.266-22.277-14.479c-13.573-1.712-26.186,5.771-31.577,17.592c-6.509-5.537-14.643-9.314-23.755-10.464
			c-15.394-1.942-29.953,4.052-39.587,14.782c-6.785-15.703-21.454-27.52-39.661-29.816c-5.488-0.692-10.877-0.453-16.021,0.569
			c-7.384-12.906-20.53-22.31-36.423-24.314c-26.613-3.357-50.921,15.299-54.646,41.766c-3.844-1.977-8.093-3.328-12.63-3.9
			c-13.074-1.648-25.431,3.553-33.47,12.803c-9.281-7.487-20.686-12.58-33.388-14.182c-19.725-2.488-38.509,3.942-52.331,16.131
			c-5.566-4.258-12.294-7.152-19.749-8.093c-6.848-0.864-13.511,0.021-19.551,2.295c-4.695-10.107-14.324-17.652-26.201-19.15
			c-15.842-1.998-30.486,7.414-35.692,21.823c-1.082-0.211-2.173-0.401-3.282-0.541c-6.33-0.798-12.523-0.326-18.34,1.196
			c-6.896-17.375-22.792-30.568-42.654-33.073c-18.423-2.324-35.819,5.11-47.02,18.262c-17.438-2.02-33.415,9.159-37.827,25.695
			c-0.686-0.129-1.378-0.243-2.08-0.332c-6.216-0.784-12.253,0.121-17.662,2.345c-6.484-12.218-18.604-21.202-33.375-23.065
			c-11.853-1.495-23.193,1.878-32.027,8.551c-5.921-5.495-13.551-9.262-22.178-10.35c-9.221-1.163-18.097,0.919-25.501,5.342
			c-3.65-13.75-15.308-24.597-30.294-26.487c-5.674-0.716-11.203-0.063-16.264,1.688c-4.675-5.419-11.293-9.195-18.955-10.162
			c-14.771-1.863-28.381,7.351-32.497,21.161c-3.919-4.9-9.672-8.343-16.39-9.189c-13.08-1.649-25.064,7.121-27.628,19.836
			c-3.315,0.99-6.455,2.43-9.333,4.268c-7.457-7.589-17.417-12.825-28.794-14.261c-14.248-1.797-27.837,2.714-37.962,11.354
			c-0.252-0.035-0.5-0.082-0.753-0.114c-0.23-0.029-0.458-0.043-0.687-0.069c-3.271-9.953-12.019-17.656-23.107-19.055
			c-15.343-1.936-29.352,8.93-31.288,24.268c-0.116,0.92-0.184,1.834-0.209,2.742c-4.45-2.347-9.387-3.952-14.673-4.619
			c-4.842-0.61-9.593-0.38-14.119,0.559c-2.917-3.088-6.883-5.223-11.429-5.796c-6.573-0.829-12.78,1.81-16.797,6.483
			c-5.146-5.995-12.449-10.173-20.906-11.24c-7.936-1.001-15.568,0.904-21.828,4.885c-5.027-15.847-18.86-28.154-36.443-30.373
			c-20.801-2.623-40.027,9.729-46.872,28.645c-8.068-9.934-19.818-16.903-33.521-18.632c-3.361-0.424-6.685-0.504-9.942-0.286
			c-0.051-23.286-17.387-43.468-41.109-46.46c-8.56-1.079-16.866,0.226-24.268,3.379c-5.221-4.183-11.841-6.689-19.051-6.689
			c-8.966,0-17.027,3.869-22.607,10.028c0.064-0.836,0.107-1.677,0.107-2.528c0-7.518-2.559-14.433-6.844-19.938
			C420.238,184.385,407.657,175.5,393,175.5c-8.727,0-16.714,3.154-22.896,8.379c-2.538-0.89-5.263-1.379-8.104-1.379
			c-3.036,0-5.941,0.556-8.624,1.565C350.21,173.889,340.718,166.5,329.5,166.5c-3.489,0-6.81,0.717-9.827,2.008
			c0.54-2.585,0.827-5.263,0.827-8.008c0-21.539-17.461-39-39-39c-8.637,0-16.615,2.813-23.078,7.565
			c-5.647-7.623-14.707-12.565-24.922-12.565c-9.811,0-18.551,4.563-24.231,11.676c-3.39-2.236-7.136-3.972-11.134-5.114
			C190.949,104.595,173.009,91.5,152,91.5c-8.116,0-15.768,1.966-22.527,5.428C128.906,79.476,114.589,65.5,97,65.5
			c-0.017,0-0.034,0.001-0.05,0.001c-8.334-13.691-22.817-23.219-39.613-24.77C57.441,39.835,57.5,38.925,57.5,38
			c0-12.979-10.521-23.5-23.5-23.5S10.5,25.021,10.5,38c0,6.369,2.538,12.143,6.652,16.375C6.914,63.872,0.5,77.434,0.5,92.5
			c0,4.453,0.562,8.774,1.615,12.899c-2.914,4.31-4.615,9.507-4.615,15.101c0,11.67,7.405,21.61,17.772,25.38
			C8.542,154.078,4.5,164.566,4.5,176c0,11.939,4.415,22.841,11.688,31.186c-0.638,0.873-1.247,1.77-1.827,2.688
			c-3.152-1.482-6.584-2.51-10.228-2.969c-18.631-2.351-35.641,10.843-37.992,29.468c-2.351,18.625,10.847,35.629,29.479,37.979
			c0.141,0.018,0.281,0.026,0.422,0.042c-0.534,2.083-0.959,4.216-1.236,6.405c-3.561,28.212,16.43,53.968,44.651,57.527
			c7,0.883,13.848,0.313,20.245-1.467c2.663,0.98,5.473,1.688,8.409,2.058c5.218,0.658,10.322,0.225,15.084-1.121
			c6.962,5.969,15.686,10.041,25.467,11.274c11.022,1.391,21.641-1.042,30.541-6.251c1.706,25.495,21.246,47.044,47.555,50.362
			c16.624,2.097,32.436-3.532,43.844-14.08c-1.146,29.476,20.43,55.441,50.253,59.202c9.418,1.188,18.584,0.013,26.923-3.04
			c11.514,26.418,36.249,46.277,66.923,50.146c42.894,5.411,82.307-22.339,92.527-63.251c2.299,0.521,4.641,0.941,7.028,1.242
			c39.708,5.008,75.959-23.094,81.003-62.775c6.371-1.572,12.324-4.336,17.571-8.08c0.138,3.12,0.781,6.135,1.868,8.949
			c-8.15,11.609-13.671,25.315-15.571,40.366c-6.223,49.302,28.713,94.312,78.031,100.532
			c49.318,6.221,94.343-28.703,100.566-78.004c0.954-7.555,0.937-15.007,0.054-22.236c10.07,0.673,19.58-2.68,26.854-8.751
			c6.067,4.06,13.14,6.816,20.876,7.792c12.256,1.546,24.015-1.632,33.464-8.102c7.699-0.646,15.024-2.879,21.611-6.397
			c0.457,0.194,0.917,0.379,1.385,0.554c0.95,29.194,22.983,54.196,52.896,57.97c33.152,4.182,63.419-19.295,67.603-52.437
			c0.149-1.183,0.254-2.36,0.333-3.534c18.979,1.404,35.937-12.297,38.347-31.39c0.38-3.014,0.372-5.986,0.021-8.871
			c2.972,1.551,6.264,2.61,9.785,3.055c0.458,0.058,0.914,0.102,1.369,0.138c-0.484,1.934-0.872,3.911-1.128,5.938
			c-3.457,27.391,15.952,52.396,43.35,55.852c27.399,3.456,52.414-15.945,55.871-43.336c0.128-1.016,0.215-2.027,0.281-3.035
			c11.042,0.918,21.54-2.354,29.86-8.538c5.417,5.977,12.908,10.127,21.54,11.216c17.578,2.217,33.745-9.01,38.187-25.659
			c0.686,0.128,1.377,0.242,2.079,0.331c3.102,0.392,6.158,0.358,9.116-0.044c8.233,9.303,19.744,15.776,33.04,17.454
			c8.787,1.108,17.338-0.015,25.1-2.905c7.088,13.688,20.564,23.78,37.02,25.855c26.576,3.353,50.84-15.468,54.193-42.036
			c0.05-0.395,0.079-0.787,0.119-1.181c5.663,12.609,17.57,22.054,32.293,23.911c3.992,0.504,7.92,0.405,11.7-0.207
			c8.375,22.418,28.595,39.55,53.993,42.754c35.61,4.492,68.173-20.053,73.932-55.166c0.021,0.003,0.041,0.007,0.063,0.01
			c13.596,1.715,26.414-3.979,34.409-13.928c4.702,12.072,15.702,21.256,29.464,22.992c10.948,1.381,21.368-2.246,28.978-9.084
			c6.746,5.101,14.87,8.568,23.864,9.703c17.98,2.269,34.935-5.309,45.442-18.526c6.596,13.035,19.342,22.668,34.931,24.634
			c24.838,3.134,47.516-14.377,50.799-39.15c2.582,1.115,5.358,1.896,8.289,2.267c5.916,0.746,11.645-0.261,16.677-2.605
			c3.742,13.875,15.536,24.807,30.681,26.717c2.254,0.284,4.484,0.346,6.675,0.222c8.995,12.663,23.061,21.668,39.69,23.765
			c27.963,3.527,53.751-13.657,61.982-39.585c10.198,13.143,25.413,22.395,43.225,24.641c15.965,2.015,31.298-1.955,43.772-10.141
			c3.46,1.443,7.163,2.459,11.063,2.951c10.171,1.283,19.955-1.142,27.995-6.217c5.542,4.938,12.581,8.313,20.503,9.312
			c16.001,2.018,30.923-6.229,38.172-19.6c1.148,0.291,2.322,0.522,3.527,0.675c10.231,1.291,19.884-2.919,26.001-10.317
			c4.093,3.38,9.157,5.684,14.815,6.397c2.486,0.313,4.938,0.303,7.314,0c3.446,15.652,16.396,28.182,33.213,30.304
			c20.148,2.541,38.635-10.768,42.946-30.2c3.95,9.724,12.893,17.09,24.05,18.498c15.006,1.894,28.814-7.645,32.688-21.82
			c1.523-0.501,2.966-1.191,4.29-2.063c2.646,3.039,6.363,5.166,10.677,5.711c6.163,0.777,11.957-1.859,15.522-6.421
			c0.364,0.344,0.737,0.68,1.118,1.006c-0.834,2.314-1.437,4.75-1.758,7.292c-2.35,18.625,10.848,35.629,29.479,37.979
			c15.236,1.921,29.381-6.553,35.318-19.889c1.118,0.239,2.251,0.443,3.406,0.589c21.92,2.765,41.932-12.757,44.697-34.669
			c2.087-16.531-6.242-31.972-19.87-39.748c20.408-5.123,35.522-23.585,35.522-45.582c0-7.463-1.747-14.516-4.843-20.782
			c3.726-6.911,5.843-14.816,5.843-23.218C2473.5,182.115,2468.128,169.99,2459.43,161.146z M592.698,323.83
			c0.065,0.067,0.132,0.134,0.198,0.2c-0.09,0.028-0.181,0.056-0.271,0.084C592.65,324.02,592.673,323.925,592.698,323.83z
			 M404.016,281.021c0.016,0.006,0.033,0.011,0.049,0.017c-0.041,0.24-0.075,0.483-0.11,0.726c-0.017,0-0.034,0-0.051,0
			C403.943,281.517,403.981,281.27,404.016,281.021z M2319.607,293.993c1.229-10.598-1.709-20.732-7.528-28.757
			c5.643-0.707,10.836-2.854,15.195-6.071c4.785,6.843,12.715,11.324,21.696,11.334c0.577,3.083,1.678,5.98,3.207,8.599
			c-3.743,1.915-7.097,4.527-9.864,7.693c-1.421-0.552-2.921-0.961-4.502-1.16C2330.405,284.697,2323.474,288.171,2319.607,293.993z
			 M2393.01,287.955c-0.308-0.387-0.623-0.768-0.947-1.14c2.91-2.265,5.348-5.107,7.131-8.362c1.818,1.229,3.729,2.332,5.715,3.302
			C2400.596,283.146,2396.578,285.252,2393.01,287.955z"/>
	</g>
</g>
<circle display="none" fill-rule="evenodd" clip-rule="evenodd" fill="#85989E" cx="2343.266" cy="269.631" r="37.225"/>
<circle display="none" fill-rule="evenodd" clip-rule="evenodd" fill="#85989E" cx="2428.042" cy="278.406" r="40"/>
<circle display="none" fill-rule="evenodd" clip-rule="evenodd" fill="#85989E" cx="2479.042" cy="145.406" r="29"/>
<circle display="none" fill-rule="evenodd" clip-rule="evenodd" fill="#85989E" cx="-17.958" cy="174.406" r="52"/>
<circle display="none" fill-rule="evenodd" clip-rule="evenodd" fill="#85989E" cx="-21.708" cy="34.906" r="40"/>
<circle display="none" fill-rule="evenodd" clip-rule="evenodd" fill="#85989E" cx="-15.708" cy="84.656" r="35"/>
<circle display="none" fill-rule="evenodd" clip-rule="evenodd" fill="#85989E" cx="10.042" cy="50.406" r="24"/>
<circle display="none" fill-rule="evenodd" clip-rule="evenodd" fill="#85989E" cx="2462.042" cy="134.406" r="42"/>
<circle display="none" fill-rule="evenodd" clip-rule="evenodd" fill="#85989E" cx="2469.042" cy="29.406" r="29"/>
<rect x="-273.289" y="312.489" fill="#FFFFFF" width="3069.307" height="683.821"/>
</svg>
